<?xml version="1.0" encoding="UTF-8"?>
<svg xmlns="http://www.w3.org/2000/svg" xmlns:xlink="http://www.w3.org/1999/xlink" width="431px" height="512px" viewBox="0 0 431 511" version="1.1">
<g id="surface1">
<path style=" stroke:none;fill-rule:nonzero;fill:rgb(70.19608%,70.19608%,70.19608%);fill-opacity:1;" d="M 422.128906 398.222656 C 414.386719 416.078125 405.222656 432.511719 394.605469 447.621094 C 380.136719 468.214844 368.289062 482.472656 359.15625 490.390625 C 345 503.386719 329.835938 510.042969 313.59375 510.421875 C 301.933594 510.421875 287.875 507.109375 271.507812 500.390625 C 255.085938 493.703125 239.996094 490.390625 226.199219 490.390625 C 211.726562 490.390625 196.207031 493.703125 179.605469 500.390625 C 162.980469 507.109375 149.585938 510.609375 139.347656 510.957031 C 123.773438 511.617188 108.25 504.773438 92.753906 490.390625 C 82.863281 481.78125 70.496094 467.019531 55.675781 446.105469 C 39.777344 423.773438 26.707031 397.878906 16.464844 368.355469 C 5.496094 336.464844 0 305.585938 0 275.6875 C 0 241.445312 7.414062 211.90625 22.257812 187.15625 C 33.929688 167.273438 49.453125 151.59375 68.878906 140.078125 C 88.308594 128.566406 109.300781 122.699219 131.910156 122.324219 C 144.277344 122.324219 160.5 126.144531 180.660156 133.652344 C 200.761719 141.183594 213.667969 145.003906 219.324219 145.003906 C 223.558594 145.003906 237.894531 140.535156 262.203125 131.632812 C 285.1875 123.375 304.589844 119.957031 320.480469 121.300781 C 363.546875 124.773438 395.902344 141.71875 417.417969 172.253906 C 378.902344 195.550781 359.851562 228.179688 360.230469 270.039062 C 360.578125 302.644531 372.425781 329.777344 395.710938 351.320312 C 406.265625 361.320312 418.050781 369.046875 431.164062 374.535156 C 428.320312 382.769531 425.320312 390.652344 422.128906 398.222656 Z M 323.355469 10.222656 C 323.355469 35.777344 314.003906 59.640625 295.363281 81.726562 C 272.867188 107.980469 245.65625 123.152344 216.148438 120.757812 C 215.773438 117.695312 215.554688 114.46875 215.554688 111.074219 C 215.554688 86.542969 226.253906 60.285156 245.25 38.820312 C 254.734375 27.949219 266.800781 18.910156 281.429688 11.703125 C 296.027344 4.601562 309.832031 0.671875 322.820312 0 C 323.199219 3.417969 323.355469 6.832031 323.355469 10.222656 Z M 323.355469 10.222656 "/>
</g>
</svg>
